<svg xmlns="http://www.w3.org/2000/svg" xmlns:xlink="http://www.w3.org/1999/xlink" width="48" height="48" viewBox="0 0 48 48">
    <defs>
        <path id="a" d="M0 .717h32.463V41H0z"/>
    </defs>
    <g fill="none" fill-rule="evenodd">
        <path fill="#333" d="M18.081 22.402a1.001 1.001 0 0 0-1.378.318l-1.722 2.756-1.042-1.116a1 1 0 0 0-1.462 1.364l1.931 2.07a.998.998 0 0 0 1.58-.153l2.412-3.86a1 1 0 0 0-.318-1.379M18.081 30.22a1.001 1.001 0 0 0-1.378.319l-1.722 2.756-1.042-1.116a1 1 0 1 0-1.462 1.364l1.931 2.069a.998.998 0 0 0 1.58-.152l2.412-3.861a1 1 0 0 0-.318-1.378"/>
        <g transform="translate(8 3.283)">
            <mask id="b" fill="#fff">
                <use xlink:href="#a"/>
            </mask>
            <path fill="#333" d="M30.463 34.511h-2.131v-19.27a1.01 1.01 0 0 0-.293-.708l-9.034-9.035a1.025 1.025 0 0 0-.708-.293H6.13V2.717h24.332v31.794zM19.297 8.62l5.62 5.621h-5.62V8.62zM26.332 39H2V7.205h15.297v8.035a1 1 0 0 0 1 1h8.035V39.001zM31.462.717H5.132a1 1 0 0 0-1 1v3.488H1a1 1 0 0 0-1 1V40a1 1 0 0 0 1 1h26.332a1 1 0 0 0 1-1v-3.489h3.13a1 1 0 0 0 1-1V1.717a1 1 0 0 0-1-1z" mask="url(#b)"/>
        </g>
        <path fill="#333" d="M30.483 33.207h-9.808a1 1 0 0 0 0 2h9.808a1 1 0 0 0 0-2M30.483 25.386h-9.808a1 1 0 0 0 0 2h9.808a1 1 0 0 0 0-2"/>
    </g>
</svg>
