<svg xmlns="http://www.w3.org/2000/svg" xmlns:xlink="http://www.w3.org/1999/xlink" width="48" height="48" viewBox="0 0 48 48">
    <defs>
        <path id="a" d="M0 .684h39.766V39H0z"/>
    </defs>
    <g fill="none" fill-rule="evenodd">
        <g transform="translate(4 4.316)">
            <mask id="b" fill="#fff">
                <use xlink:href="#a"/>
            </mask>
            <path fill="#333" d="M28.319 33.002c-1.902 0-3.741-.147-5.332-.417a11.98 11.98 0 0 0 .94-2.244c1.384.169 2.88.262 4.392.262 2.847 0 7.004-.367 9.447-1.515v2.031c-.3.566-3.38 1.883-9.447 1.883zm-12.546 3.357a10.17 10.17 0 0 1-3.534.641c-5.646 0-10.24-4.593-10.24-10.238 0-5.646 4.594-10.239 10.24-10.239a10.192 10.192 0 0 1 5.132 1.399 10.26 10.26 0 0 1 2.848 2.443 10.189 10.189 0 0 1 2.107 4.66c.1.587.152 1.171.152 1.737 0 .747-.086 1.506-.256 2.255a10.112 10.112 0 0 1-1.651 3.684l-.001.001a10.228 10.228 0 0 1-4.797 3.657zM28.319 2.684c6.029 0 9.105 1.299 9.428 1.811-.15.211-.922.776-3.058 1.247-3.578.789-9.163.789-12.74 0-2.063-.455-2.853-.998-3.041-1.225.44-.59 3.51-1.833 9.41-1.833zm9.447 10.586c-.3.566-3.38 1.882-9.447 1.882-6.047 0-9.13-1.308-9.447-1.878v-2.036c2.443 1.149 6.6 1.515 9.447 1.515 2.847 0 7.004-.366 9.447-1.515v2.032zm0-4.4c-.3.567-3.38 1.883-9.447 1.883-6.047 0-9.13-1.308-9.447-1.878v-2.03c.702.328 1.577.614 2.647.85 1.953.431 4.305.659 6.8.659s4.847-.228 6.8-.659c1.07-.236 1.945-.522 2.647-.85V8.87zm0 8.799c-.3.566-3.38 1.883-9.447 1.883-2.543 0-4.932-.254-6.782-.712a12.237 12.237 0 0 0-2.665-2.328v-.874c2.443 1.148 6.6 1.514 9.447 1.514 2.847 0 7.004-.366 9.447-1.514v2.031zm0 4.651c-.3.566-3.38 1.883-9.447 1.883-1.453 0-2.884-.09-4.196-.252a12.165 12.165 0 0 0-1.026-2.769c1.587.24 3.37.37 5.222.37 2.847 0 7.004-.366 9.447-1.515v2.283zm0 4.399c-.3.567-3.38 1.884-9.447 1.884-1.364 0-2.712-.079-3.963-.223.073-.54.122-1.081.122-1.618 0-.249-.017-.503-.034-.756 1.233.129 2.55.197 3.875.197 2.847 0 7.004-.366 9.447-1.514v2.03zm2-22.2c0-3.027-7.196-3.835-11.447-3.835-4.251 0-11.447.808-11.447 3.835v10.939c-.136-.057-.272-.122-.407-.172a12.183 12.183 0 0 0-4.226-.763c-6.75 0-12.24 5.49-12.24 12.239C0 33.51 5.49 39 12.24 39c1.429 0 2.85-.257 4.226-.764a12.23 12.23 0 0 0 5.33-3.851c1.889.393 4.162.617 6.524.617 4.25 0 11.447-.808 11.447-3.835V17.969c0-.038-.018-.071-.022-.108.004-.049.022-.094.022-.144V4.519z" mask="url(#b)"/>
        </g>
        <path fill="#333" d="M19.06 32.855l-.345-1.086h.655l-.31 1.087zm-5.914-1.086h.621l-.315 1.044-.306-1.045zm11.94-1a1 1 0 0 0-1-1h-1.214v-3.084a.997.997 0 1 0-1.994-.032c-.043.073-.092.14-.116.224l-.823 2.892h-1.858l-.927-2.92a1 1 0 0 0-.953-.698h-.008a1.002 1.002 0 0 0-.95.712l-.874 2.905H12.56l-.849-2.899a1 1 0 0 0-1.919.563l.685 2.337H8.392a1 1 0 1 0 0 2h2.67l1.417 4.837a1 1 0 0 0 .956.72h.004c.441 0 .83-.29.957-.712l1.46-4.845h.761l1.542 4.858a1 1 0 0 0 .953.698h.015c.441-.007.826-.302.947-.726l1.377-4.83h2.634a1 1 0 0 0 1-1z"/>
    </g>
</svg>
